<svg width="128" height="104" viewBox="0 0 128 104" fill="none" xmlns="http://www.w3.org/2000/svg">
<g>
<path d="M71.2601 50.4658C76.7889 26.5078 97.0611 13.3002 110.883 9C110.883 28.3507 93.6824 55.0731 79.5533 56.916" stroke="#D6D8DE" stroke-linecap="round" stroke-linejoin="round"/>
<path d="M107.812 13.6073C100.747 27.7364 75.8676 52.923 73.7175 59.3733" stroke="#D6D8DE" stroke-linecap="round" stroke-linejoin="round"/>
<path d="M64.1953 33.5721C39.0087 32.9578 29.794 49.5441 28.5654 51.0799C37.8824 56.6087 58.2979 67.7276 65.4239 67.9734C72.5499 68.2191 88.4604 59.6802 95.525 55.38C93.4773 48.3155 84.3446 34.0636 64.1953 33.5721Z" fill="#001D6D" stroke="#001D6D"/>
<path d="M43.6158 28.6579C39.3157 31.3199 29.1182 38.4254 22.7294 45.5513C28.0534 47.8038 38.9471 52.0016 39.93 50.7729C40.9129 49.5443 44.6397 37.5653 46.3802 31.7294L43.6158 28.6579Z" fill="#F3F4F6" stroke="#001D6D"/>
<path d="M44.2513 28.3461C44.2513 25.233 46.0303 18.1172 47.5869 17.2278C48.8321 16.5162 47.068 23.2317 46.0303 26.3448C46.6233 24.4177 48.1206 19.8963 49.3658 19.8963C50.6111 19.8963 48.9211 23.2317 47.8093 24.7882" stroke="#001D6D"/>
<path d="M48.9213 23.8988C49.2919 23.3058 50.1665 21.4527 50.7002 21.4527C51.3673 21.4527 50.7002 23.0093 50.7002 23.2317" stroke="#001D6D"/>
<path d="M79.2459 56.5393C72.7956 58.6893 69.1098 62.9895 68.4955 66.3682C68.4955 76.8114 76.4815 79.2687 79.8602 79.2687C83.2389 79.2687 89.3819 78.6544 92.4534 73.4328C95.525 68.2111 102.282 67.1361 105.354 65.4468C108.425 63.7574 107.627 60.2866 109.347 58.0751C111.067 55.8635 113.34 55.0035 115.49 54.3892C118.562 53.5116 121.879 52.1777 124.09 50.7034C126.855 48.8605 129.619 43.6388 126.855 41.4887C124.09 38.4172 117.947 39.953 115.49 41.4887C112.343 43.4558 111.497 46.7104 108.118 47.6318C104.74 48.5533 99.2109 46.7104 95.525 47.6318C91.8392 48.5533 90.3034 51.932 87.2318 54.3892C84.1603 56.8464 84.7438 54.7066 79.2459 56.5393Z" fill="#F3F4F6" stroke="#D6D8DE" stroke-linecap="round" stroke-linejoin="round"/>
<path d="M71.2601 73.74C77.0961 66.0612 80.4748 65.4469 83.2391 65.1397C86.0035 64.8326 93.3752 62.0682 95.8324 59.9181C98.2897 57.768 103.511 53.4679 105.969 52.5464C107.934 51.8092 115.183 49.3725 118.562 48.2462" stroke="#D6D8DE" stroke-linecap="round" stroke-linejoin="round"/>
<path d="M20.1298 42.9782C40.6486 44.3209 63.7712 57.2024 71.9865 66.0727C77.2094 71.712 69.8501 78.6081 60.0482 76.0087C45.8716 72.2491 39.9026 66.6098 38.0372 59.8962C24.2336 59.0906 22.1389 51.3029 20.1298 51.3029C13.7877 51.3029 8.84463 49.5515 4.4608 47.5434C0.357211 45.6636 -0.637646 44.0523 0.357202 42.9782C1.35206 41.904 3.71473 41.904 20.1298 42.9782Z" fill="#F3F4F6" stroke="#D6D8DE" stroke-linecap="round" stroke-linejoin="round"/>
<path d="M22.7294 46.9673C29.3639 45.8458 37.4728 46.6869 44.8445 48.9299" stroke="#D6D8DE" stroke-linecap="round" stroke-linejoin="round"/>
<path d="M44.8447 59.2537C51.4793 58.1322 59.5881 58.9733 66.9598 61.2163" stroke="#D6D8DE" stroke-linecap="round" stroke-linejoin="round"/>
<path d="M55.7874 40.9442C55.7874 36.1312 59.689 32.2295 64.502 32.2295C69.3149 32.2295 73.2166 36.1312 73.2166 40.9442V42.1728C73.2166 46.9857 69.3149 50.8874 64.502 50.8874C59.689 50.8874 55.7874 46.9857 55.7874 42.1728V40.9442Z" fill="#F3F4F6" stroke="#001D6D"/>
<path d="M64.5021 34.1865V44.0155" stroke="#001D6D"/>
<path d="M65.7302 47.6323C66.05 46.3134 67.3784 45.5035 68.6973 45.8233" stroke="#001D6D"/>
<rect x="55.1735" y="13.1858" width="18.0435" height="19.8865" rx="9.02177" fill="#D6D8DE" stroke="#001D6D"/>
<path d="M61.738 21.2862L54.6735 23.4363L55.5949 27.4293L62.3523 33.2652L68.1882 30.5008L74.6385 24.6649L72.7955 21.2862H61.738Z" fill="#F3F4F6"/>
<rect x="59.5881" y="29.8864" width="10.4432" height="6.75739" fill="#001D6D"/>
<circle cx="53.445" cy="33.5724" r="10.5575" fill="#6FA3FF" stroke="#001D6D"/>
<circle cx="75.5596" cy="32.9579" r="10.5575" fill="#6FA3FF" stroke="#001D6D"/>
<path d="M75.8667 16.0646L55.2874 22.8221C55.2874 22.8221 59.2804 21.5934 64.502 21.5934C69.7236 21.5934 73.1023 22.8221 73.1023 22.8221L98.2889 16.0646C98.2889 16.0646 90.6101 15.1431 86.0028 15.1432C83.1515 15.1432 75.8667 16.0646 75.8667 16.0646Z" fill="#D6D8DE" stroke="#001D6D" stroke-linejoin="round"/>
<path d="M1.46619 89.9021H14.0503V93.9451H20.7719V89.9021H23.7536V84.4439H20.7719V68.0695H11.8771L1.46619 84.4439V89.9021ZM14.2019 84.4439H8.38996V84.2418L13.9997 75.347H14.2019V84.4439Z" fill="#6FA3FF"/>
<path d="M37.9707 94.6527C45.0082 94.6653 49.3798 89.6241 49.3924 81.0578C49.4051 72.5421 45.0082 67.7157 37.9707 67.7157C30.9206 67.7157 26.5743 72.5168 26.5491 81.0578C26.5238 89.5862 30.9206 94.64 37.9707 94.6527ZM37.9707 88.9418C35.5449 88.9418 33.8013 86.5034 33.8266 81.0578C33.8519 75.7387 35.5449 73.376 37.9707 73.376C40.3966 73.376 42.1023 75.7387 42.1149 81.0578C42.1275 86.5034 40.3966 88.9418 37.9707 88.9418Z" fill="#6FA3FF"/>
<path d="M52.4374 89.9021H65.0215V93.9451H71.7431V89.9021H74.7248V84.4439H71.7431V68.0695H62.8483L52.4374 84.4439V89.9021ZM65.1731 84.4439H59.3611V84.2418L64.9709 75.347H65.1731V84.4439Z" fill="#6FA3FF"/>
</g>
<defs>

</defs>
</svg>
