<svg width="128" height="104" viewBox="0 0 128 104" fill="none" xmlns="http://www.w3.org/2000/svg">
<path d="M4.5 34.6649C4.5 18.0053 18.0053 4.5 34.6649 4.5C51.3245 4.5 64.8297 18.0053 64.8297 34.6649V99.0603H4.5V34.6649Z" stroke="#001D6D"/>
<mask id="mask0_6586_106165" style="mask-type:alpha" maskUnits="userSpaceOnUse" x="4" y="4" width="61" height="95">
<path d="M4.95466 35.0056C4.71322 17.679 18.2567 4.95099 34.6655 4.95099C51.0743 4.95099 64.618 18.1593 64.3763 35.0056V98.6096H4.95466V35.0056Z" fill="#A7C7FF"/>
</mask>
<g mask="url(#mask0_6586_106165)">
<rect x="-38.0463" y="30.6238" width="161.644" height="6.65594" transform="rotate(32.6628 -38.0463 30.6238)" fill="white"/>
<path d="M35.2278 77.5982L43.6021 82.9668L34.776 85.2148L26.4017 79.8463L35.2278 77.5982Z" fill="#D6D8DE"/>
<path d="M48.8365 86.3221L57.2108 91.6906L48.3847 93.9387L40.0104 88.5702L48.8365 86.3221Z" fill="#D6D8DE"/>
<path d="M62.4443 95.046L70.8185 100.414L61.9924 102.663L53.6182 97.294L62.4443 95.046Z" fill="#D6D8DE"/>
<path d="M8.01146 60.1505L16.3857 65.519L7.55964 67.7671L-0.81464 62.3986L8.01146 60.1505Z" fill="#D6D8DE"/>
<path d="M21.6201 68.8745L29.9944 74.243L21.1683 76.4911L12.794 71.1226L21.6201 68.8745Z" fill="#D6D8DE"/>
<rect x="-37.6091" y="42.5329" width="161.644" height="6.65594" transform="rotate(-14.3692 -37.6091 42.5329)" fill="white"/>
<path d="M46.7091 20.9325L56.3453 18.4638L51.9745 26.4545L42.3383 28.9231L46.7091 20.9325Z" fill="#D6D8DE"/>
<path d="M62.3676 16.9207L72.0038 14.452L67.633 22.4426L57.9968 24.9113L62.3676 16.9207Z" fill="#D6D8DE"/>
<path d="M-0.267321 32.9668L9.36883 30.4981L4.99804 38.4888L-4.63811 40.9574L-0.267321 32.9668Z" fill="#D6D8DE"/>
<path d="M15.3912 28.9554L25.0273 26.4868L20.6565 34.4774L11.0204 36.946L15.3912 28.9554Z" fill="#D6D8DE"/>
<path d="M31.0497 24.9438L40.6858 22.4752L36.3151 30.4658L26.6789 32.9344L31.0497 24.9438Z" fill="#D6D8DE"/>
<rect x="-19.5954" y="145.137" width="161.644" height="6.65594" transform="rotate(-57.421 -19.5954 145.137)" fill="white"/>
<path d="M27.2714 71.7935L32.6277 63.4114L34.8887 72.2342L29.5324 80.6163L27.2714 71.7935Z" fill="#D6D8DE"/>
<path d="M35.9759 58.1726L41.3322 49.7904L43.5931 58.6132L38.2369 66.9954L35.9759 58.1726Z" fill="#D6D8DE"/>
<path d="M44.6795 44.5516L50.0357 36.1694L52.2967 44.9922L46.9404 53.3744L44.6795 44.5516Z" fill="#D6D8DE"/>
<path d="M9.86348 99.0354L15.2197 90.6533L17.4807 99.4761L12.1244 107.858L9.86348 99.0354Z" fill="#D6D8DE"/>
<path d="M53.3829 30.9307L58.7392 22.5486L61.0002 31.3714L55.6439 39.7535L53.3829 30.9307Z" fill="#D6D8DE"/>
<path d="M18.5679 85.4144L23.9242 77.0323L26.1852 85.8551L20.8289 94.2372L18.5679 85.4144Z" fill="#D6D8DE"/>
<path d="M62.0874 17.3097L67.4437 8.9276L69.7046 17.7504L64.3484 26.1325L62.0874 17.3097Z" fill="#D6D8DE"/>
</g>
<rect x="63.4282" y="42.0339" width="2.85255" height="10.4593" rx="1.42627" fill="#001D6D"/>
<rect x="63.4282" y="78.6417" width="2.85255" height="10.4593" rx="1.42627" fill="#001D6D"/>
<rect x="10.2059" y="49.1899" width="4.70509" height="9.45934" rx="2.35255" stroke="#001D6D"/>
<rect x="12.1059" y="52.9933" width="14.2136" height="1.85255" rx="0.926273" fill="#E5E7EB" stroke="#001D6D"/>
</svg>
