<svg width="128" height="104" viewBox="0 0 128 104" fill="none" xmlns="http://www.w3.org/2000/svg">
<g>
<circle cx="41.5393" cy="55.2934" r="38.544" fill="#E5E7EB" stroke="#001D6D"/>
<mask id="path-2-inside-1_6488_122201" fill="white">
<path fill-rule="evenodd" clip-rule="evenodd" d="M6.24823 38.5701C8.61269 37.1911 11.3628 36.401 14.2974 36.401H45.6913C54.5279 36.401 61.6913 43.5645 61.6913 52.401V82.1157C61.6913 84.9297 60.9649 87.5739 59.6894 89.8713C54.267 92.7233 48.0918 94.3373 41.5396 94.3373C19.9762 94.3373 2.49561 76.8567 2.49561 55.2933C2.49561 49.309 3.84194 43.6391 6.24823 38.5701Z"/>
</mask>
<path fill-rule="evenodd" clip-rule="evenodd" d="M6.24823 38.5701C8.61269 37.1911 11.3628 36.401 14.2974 36.401H45.6913C54.5279 36.401 61.6913 43.5645 61.6913 52.401V82.1157C61.6913 84.9297 60.9649 87.5739 59.6894 89.8713C54.267 92.7233 48.0918 94.3373 41.5396 94.3373C19.9762 94.3373 2.49561 76.8567 2.49561 55.2933C2.49561 49.309 3.84194 43.6391 6.24823 38.5701Z" fill="white"/>
<path d="M6.24823 38.5701L5.74443 37.7062L5.47741 37.862L5.34485 38.1412L6.24823 38.5701ZM59.6894 89.8713L60.1549 90.7563L60.4188 90.6175L60.5636 90.3567L59.6894 89.8713ZM6.75203 39.4339C8.96771 38.1416 11.5445 37.401 14.2974 37.401V35.401C11.181 35.401 8.25767 36.2405 5.74443 37.7062L6.75203 39.4339ZM14.2974 37.401H45.6913V35.401H14.2974V37.401ZM45.6913 37.401C53.9756 37.401 60.6913 44.1167 60.6913 52.401H62.6913C62.6913 43.0122 55.0802 35.401 45.6913 35.401V37.401ZM60.6913 52.401V82.1157H62.6913V52.401H60.6913ZM60.6913 82.1157C60.6913 84.7555 60.0103 87.2332 58.8151 89.3858L60.5636 90.3567C61.9195 87.9147 62.6913 85.1038 62.6913 82.1157H60.6913ZM59.2239 88.9862C53.9416 91.7646 47.9257 93.3373 41.5396 93.3373V95.3373C48.2578 95.3373 54.5924 93.6821 60.1549 90.7563L59.2239 88.9862ZM41.5396 93.3373C20.5285 93.3373 3.49561 76.3044 3.49561 55.2933H1.49561C1.49561 77.409 19.4239 95.3373 41.5396 95.3373V93.3373ZM3.49561 55.2933C3.49561 49.4604 4.80759 43.9368 7.15161 38.9989L5.34485 38.1412C2.87629 43.3415 1.49561 49.1575 1.49561 55.2933H3.49561Z" fill="#001D6D" mask="url(#path-2-inside-1_6488_122201)"/>
<mask id="path-4-inside-2_6488_122201" fill="white">
<path fill-rule="evenodd" clip-rule="evenodd" d="M19.6543 53.5103C23.6825 48.2754 30.149 45.9743 36.4146 46.9022L30.6362 54.4117C29.289 56.1625 29.6162 58.6739 31.367 60.0211L39.6938 66.4284C41.4446 67.7756 43.9561 67.4484 45.3033 65.6976L51.0817 58.188C53.5841 64.0068 53.0166 70.8471 48.9884 76.0822C44.647 81.7242 37.4732 83.9584 30.7712 82.4151L17.7881 99.2879C15.1168 102.759 10.137 103.408 6.66537 100.737C3.19378 98.0656 2.54502 93.0858 5.21632 89.6142L18.1997 72.7412C14.9914 66.6584 15.3131 59.1521 19.6543 53.5103ZM9.48751 97.07C10.6447 97.9604 12.3046 97.7441 13.1951 96.5869C14.0855 95.4298 13.8692 93.7698 12.7121 92.8794C11.5549 91.989 9.89493 92.2052 9.00449 93.3624C8.11406 94.5196 8.33031 96.1795 9.48751 97.07Z"/>
</mask>
<path fill-rule="evenodd" clip-rule="evenodd" d="M19.6543 53.5103C23.6825 48.2754 30.149 45.9743 36.4146 46.9022L30.6362 54.4117C29.289 56.1625 29.6162 58.6739 31.367 60.0211L39.6938 66.4284C41.4446 67.7756 43.9561 67.4484 45.3033 65.6976L51.0817 58.188C53.5841 64.0068 53.0166 70.8471 48.9884 76.0822C44.647 81.7242 37.4732 83.9584 30.7712 82.4151L17.7881 99.2879C15.1168 102.759 10.137 103.408 6.66537 100.737C3.19378 98.0656 2.54502 93.0858 5.21632 89.6142L18.1997 72.7412C14.9914 66.6584 15.3131 59.1521 19.6543 53.5103ZM9.48751 97.07C10.6447 97.9604 12.3046 97.7441 13.1951 96.5869C14.0855 95.4298 13.8692 93.7698 12.7121 92.8794C11.5549 91.989 9.89493 92.2052 9.00449 93.3624C8.11406 94.5196 8.33031 96.1795 9.48751 97.07Z" fill="#EDF5FF"/>
<path d="M36.4146 46.9022L37.2071 47.512L38.2456 46.1624L36.5611 45.913L36.4146 46.9022ZM30.6362 54.4117L29.8437 53.8018L30.6362 54.4117ZM51.0817 58.188L52.0004 57.7929L51.3276 56.2286L50.2892 57.5781L51.0817 58.188ZM30.7712 82.4151L30.9956 81.4406L30.3701 81.2966L29.9787 81.8053L30.7712 82.4151ZM17.7881 99.2879L18.5806 99.8977L17.7881 99.2879ZM5.21632 89.6142L4.42379 89.0044L5.21632 89.6142ZM18.1997 72.7412L18.9922 73.351L19.3837 72.8423L19.0842 72.2746L18.1997 72.7412ZM36.5611 45.913C29.9643 44.9361 23.1275 47.3569 18.8618 52.9005L20.4469 54.1202C24.2375 49.1939 30.3336 47.0126 36.2681 47.8914L36.5611 45.913ZM31.4288 55.0215L37.2071 47.512L35.6221 46.2923L29.8437 53.8018L31.4288 55.0215ZM31.9769 59.2286C30.6638 58.2182 30.4184 56.3346 31.4288 55.0215L29.8437 53.8018C28.1597 55.9903 28.5687 59.1296 30.7572 60.8136L31.9769 59.2286ZM40.3036 65.6358L31.9769 59.2286L30.7572 60.8136L39.084 67.2209L40.3036 65.6358ZM44.5107 65.0877C43.5003 66.4008 41.6168 66.6462 40.3036 65.6358L39.084 67.2209C41.2725 68.9049 44.4118 68.4959 46.0958 66.3074L44.5107 65.0877ZM50.2892 57.5781L44.5107 65.0877L46.0958 66.3074L51.8743 58.7978L50.2892 57.5781ZM49.7809 76.692C54.0467 71.1483 54.635 63.9193 52.0004 57.7929L50.1631 58.583C52.5332 64.0943 51.9866 70.546 48.1959 75.4723L49.7809 76.692ZM30.5468 83.3896C37.6003 85.0138 45.183 82.6674 49.7809 76.692L48.1959 75.4723C44.1109 80.781 37.3461 82.9029 30.9956 81.4406L30.5468 83.3896ZM18.5806 99.8977L31.5637 83.0249L29.9787 81.8053L16.9955 98.678L18.5806 99.8977ZM6.05554 101.529C9.96483 104.538 15.5725 103.807 18.5806 99.8977L16.9955 98.678C14.661 101.712 10.3091 102.279 7.27521 99.9444L6.05554 101.529ZM4.42379 89.0044C1.41569 92.9137 2.14625 98.5213 6.05554 101.529L7.27521 99.9444C4.24132 97.6099 3.67435 93.2579 6.00885 90.224L4.42379 89.0044ZM17.4072 72.1313L4.42379 89.0044L6.00885 90.224L18.9922 73.351L17.4072 72.1313ZM18.8618 52.9005C14.2641 58.8756 13.9386 66.8059 17.3152 73.2077L19.0842 72.2746C16.0441 66.5109 16.3621 59.4286 20.4469 54.1202L18.8618 52.9005ZM12.4025 95.9771C11.8489 96.6966 10.8168 96.8311 10.0973 96.2774L8.87768 97.8625C10.4726 99.0897 12.7604 98.7917 13.9876 97.1968L12.4025 95.9771ZM12.1022 93.6719C12.8217 94.2255 12.9562 95.2576 12.4025 95.9771L13.9876 97.1968C15.2148 95.6019 14.9168 93.3141 13.3219 92.0869L12.1022 93.6719ZM9.79702 93.9722C10.3507 93.2527 11.3827 93.1183 12.1022 93.6719L13.3219 92.0869C11.727 90.8596 9.4392 91.1577 8.21196 92.7526L9.79702 93.9722ZM10.0973 96.2774C9.37785 95.7238 9.24339 94.6917 9.79702 93.9722L8.21196 92.7526C6.98473 94.3475 7.28278 96.6353 8.87768 97.8625L10.0973 96.2774Z" fill="#001D6D" mask="url(#path-4-inside-2_6488_122201)"/>
<rect x="27.9603" y="65.2127" width="9.57518" height="4.94854" rx="1.5" transform="rotate(37.5774 27.9603 65.2127)" fill="#EDF5FF" stroke="#001D6D"/>
<line x1="30.8872" y1="66.8285" x2="27.3192" y2="71.5497" stroke="#001D6D"/>
<line x1="33.505" y1="68.8454" x2="29.9692" y2="73.4801" stroke="#001D6D"/>
<mask id="path-9-inside-3_6488_122201" fill="white">
<path fill-rule="evenodd" clip-rule="evenodd" d="M54.1782 54.3554L50.0113 44.2662L39.1913 42.8234L32.5381 51.4697L36.705 61.5589L47.5251 63.0018L54.1782 54.3554ZM40.8246 56.2064C42.5983 57.5712 45.1425 57.2397 46.5073 55.4661C47.872 53.6924 47.5406 51.1482 45.7669 49.7834C43.9933 48.4186 41.4491 48.7501 40.0843 50.5238C38.7195 52.2974 39.0509 54.8416 40.8246 56.2064Z"/>
</mask>

<path d="M50.0113 44.2662L50.9356 43.8845L50.7153 43.3513L50.1435 43.275L50.0113 44.2662ZM54.1782 54.3554L54.9708 54.9653L55.323 54.5075L55.1025 53.9737L54.1782 54.3554ZM39.1913 42.8234L39.3234 41.8321L38.7509 41.7558L38.3987 42.2135L39.1913 42.8234ZM32.5381 51.4697L31.7456 50.8598L31.3934 51.3176L31.6139 51.8514L32.5381 51.4697ZM36.705 61.5589L35.7808 61.9406L36.001 62.4739L36.5729 62.5501L36.705 61.5589ZM47.5251 63.0018L47.3929 63.993L47.9654 64.0693L48.3176 63.6116L47.5251 63.0018ZM49.087 44.648L53.254 54.7372L55.1025 53.9737L50.9356 43.8845L49.087 44.648ZM39.0591 43.8146L49.8791 45.2575L50.1435 43.275L39.3234 41.8321L39.0591 43.8146ZM33.3307 52.0795L39.9838 43.4332L38.3987 42.2135L31.7456 50.8598L33.3307 52.0795ZM37.6293 61.1772L33.4624 51.0879L31.6139 51.8514L35.7808 61.9406L37.6293 61.1772ZM47.6573 62.0105L36.8372 60.5677L36.5729 62.5501L47.3929 63.993L47.6573 62.0105ZM53.3857 53.7456L46.7326 62.3919L48.3176 63.6116L54.9708 54.9653L53.3857 53.7456ZM45.7147 54.8563C44.6867 56.1922 42.7704 56.4419 41.4344 55.4139L40.2148 56.9989C42.4261 58.7005 45.5982 58.2873 47.2998 56.0759L45.7147 54.8563ZM45.1571 50.576C46.493 51.6039 46.7427 53.5203 45.7147 54.8563L47.2998 56.0759C49.0014 53.8646 48.5881 50.6925 46.3768 48.9909L45.1571 50.576ZM40.8768 51.1336C41.9048 49.7976 43.8211 49.548 45.1571 50.576L46.3768 48.9909C44.1654 47.2893 40.9933 47.7026 39.2917 49.9139L40.8768 51.1336ZM41.4344 55.4139C40.0985 54.3859 39.8488 52.4696 40.8768 51.1336L39.2917 49.9139C37.5902 52.1253 38.0034 55.2974 40.2148 56.9989L41.4344 55.4139Z" fill="#001D6D" mask="url(#path-9-inside-3_6488_122201)"/>
<path d="M54.6209 32.117C60.5725 32.117 64.4607 28.5031 64.4487 23.3864C64.4607 18.7469 61.2165 15.467 56.8632 15.467C54.3824 15.467 52.3787 16.5642 51.6154 18.0432H51.4722L51.9493 12.6522H62.9221V7.35666H46.5106L45.5565 20.8102L51.3768 21.9552C51.9374 20.7625 53.2136 20.0469 54.6209 20.0469C56.6485 20.0469 58.0678 21.4424 58.0559 23.5773C58.0678 25.7122 56.6485 27.1076 54.6209 27.1076C52.8677 27.1076 51.4245 26.0342 51.3768 24.3406H44.9363C44.9721 28.8967 48.9914 32.117 54.6209 32.117Z" fill="#6FA3FF"/>
<path d="M77.947 32.4509C84.5903 32.4628 88.717 27.704 88.729 19.6175C88.7409 11.5788 84.5903 7.02271 77.947 7.02271C71.2918 7.02271 67.1889 11.5549 67.1651 19.6175C67.1412 27.6682 71.2918 32.439 77.947 32.4509ZM77.947 27.0599C75.657 27.0599 74.0111 24.758 74.035 19.6175C74.0588 14.5963 75.657 12.366 77.947 12.366C80.237 12.366 81.8471 14.5963 81.859 19.6175C81.871 24.758 80.237 27.0599 77.947 27.0599Z" fill="#6FA3FF"/>
<path d="M102.481 32.4509C109.124 32.4628 113.251 27.704 113.263 19.6175C113.275 11.5788 109.124 7.02271 102.481 7.02271C95.8255 7.02271 91.7226 11.5549 91.6988 19.6175C91.6749 27.6682 95.8255 32.439 102.481 32.4509ZM102.481 27.0599C100.191 27.0599 98.5448 24.758 98.5687 19.6175C98.5925 14.5963 100.191 12.366 102.481 12.366C104.771 12.366 106.381 14.5963 106.393 19.6175C106.405 24.758 104.771 27.0599 102.481 27.0599Z" fill="#6FA3FF"/>
</g>
<defs>

</defs>
</svg>
