<svg width="128" height="104" viewBox="0 0 128 104" fill="none" xmlns="http://www.w3.org/2000/svg">
<g>
<circle cx="41.5393" cy="55.2934" r="38.544" fill="#E5E7EB" stroke="#001D6D"/>
<mask id="path-2-inside-1_6488_122294" fill="white">
<path fill-rule="evenodd" clip-rule="evenodd" d="M6.24823 38.5701C8.61269 37.1911 11.3628 36.401 14.2974 36.401H45.6913C54.5279 36.401 61.6913 43.5645 61.6913 52.401V82.1157C61.6913 84.9297 60.9649 87.5739 59.6894 89.8713C54.267 92.7233 48.0918 94.3373 41.5396 94.3373C19.9762 94.3373 2.49561 76.8567 2.49561 55.2933C2.49561 49.309 3.84194 43.6391 6.24823 38.5701Z"/>
</mask>
<path fill-rule="evenodd" clip-rule="evenodd" d="M6.24823 38.5701C8.61269 37.1911 11.3628 36.401 14.2974 36.401H45.6913C54.5279 36.401 61.6913 43.5645 61.6913 52.401V82.1157C61.6913 84.9297 60.9649 87.5739 59.6894 89.8713C54.267 92.7233 48.0918 94.3373 41.5396 94.3373C19.9762 94.3373 2.49561 76.8567 2.49561 55.2933C2.49561 49.309 3.84194 43.6391 6.24823 38.5701Z" fill="white"/>
<path d="M6.24823 38.5701L5.74443 37.7062L5.47741 37.862L5.34485 38.1412L6.24823 38.5701ZM59.6894 89.8713L60.1549 90.7563L60.4188 90.6175L60.5636 90.3567L59.6894 89.8713ZM6.75203 39.4339C8.96771 38.1416 11.5445 37.401 14.2974 37.401V35.401C11.181 35.401 8.25767 36.2405 5.74443 37.7062L6.75203 39.4339ZM14.2974 37.401H45.6913V35.401H14.2974V37.401ZM45.6913 37.401C53.9756 37.401 60.6913 44.1167 60.6913 52.401H62.6913C62.6913 43.0122 55.0802 35.401 45.6913 35.401V37.401ZM60.6913 52.401V82.1157H62.6913V52.401H60.6913ZM60.6913 82.1157C60.6913 84.7555 60.0103 87.2332 58.8151 89.3858L60.5636 90.3567C61.9195 87.9147 62.6913 85.1038 62.6913 82.1157H60.6913ZM59.2239 88.9862C53.9416 91.7646 47.9257 93.3373 41.5396 93.3373V95.3373C48.2578 95.3373 54.5924 93.6821 60.1549 90.7563L59.2239 88.9862ZM41.5396 93.3373C20.5285 93.3373 3.49561 76.3044 3.49561 55.2933H1.49561C1.49561 77.409 19.4239 95.3373 41.5396 95.3373V93.3373ZM3.49561 55.2933C3.49561 49.4604 4.80759 43.9368 7.15161 38.9989L5.34485 38.1412C2.87629 43.3415 1.49561 49.1575 1.49561 55.2933H3.49561Z" fill="#001D6D" mask="url(#path-2-inside-1_6488_122294)"/>
<mask id="path-4-inside-2_6488_122294" fill="white">
<path fill-rule="evenodd" clip-rule="evenodd" d="M19.6543 53.5103C23.6825 48.2754 30.149 45.9743 36.4146 46.9022L30.6362 54.4117C29.289 56.1625 29.6162 58.6739 31.367 60.0211L39.6938 66.4284C41.4446 67.7756 43.9561 67.4484 45.3033 65.6976L51.0817 58.188C53.5841 64.0068 53.0166 70.8471 48.9884 76.0822C44.647 81.7242 37.4732 83.9584 30.7712 82.4151L17.7881 99.2879C15.1168 102.759 10.137 103.408 6.66537 100.737C3.19378 98.0656 2.54502 93.0858 5.21632 89.6142L18.1997 72.7412C14.9914 66.6584 15.3131 59.1521 19.6543 53.5103ZM9.48751 97.0702C10.6447 97.9606 12.3046 97.7443 13.1951 96.5871C14.0855 95.4299 13.8693 93.77 12.7121 92.8796C11.5549 91.9891 9.89493 92.2054 9.00449 93.3626C8.11406 94.5198 8.33031 96.1797 9.48751 97.0702Z"/>
</mask>
<path fill-rule="evenodd" clip-rule="evenodd" d="M19.6543 53.5103C23.6825 48.2754 30.149 45.9743 36.4146 46.9022L30.6362 54.4117C29.289 56.1625 29.6162 58.6739 31.367 60.0211L39.6938 66.4284C41.4446 67.7756 43.9561 67.4484 45.3033 65.6976L51.0817 58.188C53.5841 64.0068 53.0166 70.8471 48.9884 76.0822C44.647 81.7242 37.4732 83.9584 30.7712 82.4151L17.7881 99.2879C15.1168 102.759 10.137 103.408 6.66537 100.737C3.19378 98.0656 2.54502 93.0858 5.21632 89.6142L18.1997 72.7412C14.9914 66.6584 15.3131 59.1521 19.6543 53.5103ZM9.48751 97.0702C10.6447 97.9606 12.3046 97.7443 13.1951 96.5871C14.0855 95.4299 13.8693 93.77 12.7121 92.8796C11.5549 91.9891 9.89493 92.2054 9.00449 93.3626C8.11406 94.5198 8.33031 96.1797 9.48751 97.0702Z" fill="#EDF5FF"/>
<path d="M36.4146 46.9022L37.2071 47.512L38.2456 46.1624L36.5611 45.913L36.4146 46.9022ZM30.6362 54.4117L29.8437 53.8018L30.6362 54.4117ZM51.0817 58.188L52.0004 57.7929L51.3276 56.2286L50.2892 57.5781L51.0817 58.188ZM30.7712 82.4151L30.9956 81.4406L30.3701 81.2966L29.9787 81.8053L30.7712 82.4151ZM17.7881 99.2879L18.5806 99.8977L17.7881 99.2879ZM18.1997 72.7412L18.9922 73.351L19.3837 72.8423L19.0842 72.2746L18.1997 72.7412ZM36.5611 45.913C29.9643 44.9361 23.1275 47.3569 18.8618 52.9005L20.4469 54.1202C24.2375 49.1939 30.3336 47.0126 36.2681 47.8914L36.5611 45.913ZM31.4288 55.0215L37.2071 47.512L35.6221 46.2923L29.8437 53.8018L31.4288 55.0215ZM31.9769 59.2286C30.6638 58.2182 30.4184 56.3346 31.4288 55.0215L29.8437 53.8018C28.1597 55.9903 28.5687 59.1296 30.7572 60.8136L31.9769 59.2286ZM40.3036 65.6358L31.9769 59.2286L30.7572 60.8136L39.084 67.2209L40.3036 65.6358ZM44.5107 65.0877C43.5003 66.4008 41.6168 66.6462 40.3036 65.6358L39.084 67.2209C41.2725 68.9049 44.4118 68.4959 46.0958 66.3074L44.5107 65.0877ZM50.2892 57.5781L44.5107 65.0877L46.0958 66.3074L51.8743 58.7978L50.2892 57.5781ZM49.7809 76.692C54.0467 71.1483 54.635 63.9193 52.0004 57.7929L50.1631 58.583C52.5332 64.0943 51.9866 70.546 48.1959 75.4723L49.7809 76.692ZM30.5468 83.3896C37.6003 85.0138 45.183 82.6674 49.7809 76.692L48.1959 75.4723C44.1109 80.781 37.3461 82.9029 30.9956 81.4406L30.5468 83.3896ZM18.5806 99.8977L31.5637 83.0249L29.9787 81.8053L16.9955 98.678L18.5806 99.8977ZM6.05554 101.529C9.96483 104.538 15.5725 103.807 18.5806 99.8977L16.9955 98.678C14.661 101.712 10.3091 102.279 7.27521 99.9444L6.05554 101.529ZM4.42379 89.0044C1.41569 92.9137 2.14625 98.5213 6.05554 101.529L7.27521 99.9444C4.24132 97.6099 3.67435 93.2579 6.00885 90.224L4.42379 89.0044ZM17.4072 72.1313L4.42379 89.0044L6.00885 90.224L18.9922 73.351L17.4072 72.1313ZM18.8618 52.9005C14.2641 58.8756 13.9386 66.8059 17.3152 73.2077L19.0842 72.2746C16.0441 66.5109 16.3621 59.4286 20.4469 54.1202L18.8618 52.9005ZM12.4025 95.9773C11.8489 96.6968 10.8168 96.8313 10.0973 96.2776L8.87768 97.8627C10.4726 99.0899 12.7604 98.7919 13.9876 97.197L12.4025 95.9773ZM12.1022 93.6721C12.8217 94.2257 12.9562 95.2578 12.4025 95.9773L13.9876 97.197C15.2148 95.6021 14.9168 93.3143 13.3219 92.087L12.1022 93.6721ZM9.79702 93.9724C10.3507 93.2529 11.3827 93.1185 12.1022 93.6721L13.3219 92.087C11.727 90.8598 9.4392 91.1579 8.21196 92.7528L9.79702 93.9724ZM10.0973 96.2776C9.37785 95.724 9.24339 94.6919 9.79702 93.9724L8.21196 92.7528C6.98473 94.3477 7.28278 96.6354 8.87768 97.8627L10.0973 96.2776Z" fill="#001D6D" mask="url(#path-4-inside-2_6488_122294)"/>
<rect x="27.9603" y="65.2127" width="9.57518" height="4.94854" rx="1.5" transform="rotate(37.5774 27.9603 65.2127)" fill="#EDF5FF" stroke="#001D6D"/>
<line x1="30.8873" y1="66.8285" x2="27.3192" y2="71.5497" stroke="#001D6D"/>
<line x1="33.5051" y1="68.8454" x2="29.9693" y2="73.4801" stroke="#001D6D"/>
<mask id="path-9-inside-3_6488_122294" fill="white">
<path fill-rule="evenodd" clip-rule="evenodd" d="M54.1782 54.3554L50.0113 44.2662L39.1913 42.8234L32.5381 51.4697L36.705 61.5589L47.5251 63.0018L54.1782 54.3554ZM40.8246 56.2064C42.5983 57.5712 45.1425 57.2397 46.5073 55.4661C47.872 53.6924 47.5406 51.1482 45.7669 49.7834C43.9933 48.4186 41.4491 48.7501 40.0843 50.5238C38.7195 52.2974 39.0509 54.8416 40.8246 56.2064Z"/>
</mask>
<path fill-rule="evenodd" clip-rule="evenodd" d="M54.1782 54.3554L50.0113 44.2662L39.1913 42.8234L32.5381 51.4697L36.705 61.5589L47.5251 63.0018L54.1782 54.3554ZM40.8246 56.2064C42.5983 57.5712 45.1425 57.2397 46.5073 55.4661C47.872 53.6924 47.5406 51.1482 45.7669 49.7834C43.9933 48.4186 41.4491 48.7501 40.0843 50.5238C38.7195 52.2974 39.0509 54.8416 40.8246 56.2064Z" fill="#6FA3FF"/>
<path d="M101.383 32.117C107.359 32.117 111.569 29.0756 111.545 24.77C111.569 21.7763 109.565 19.6652 105.629 19.2359V19.045C108.54 18.7349 110.663 16.8624 110.639 14.1312C110.663 10.0164 106.846 7.02271 101.431 7.02271C95.897 7.02271 91.9612 10.1833 91.9373 14.6559H98.2824C98.3063 13.177 99.6063 12.1274 101.431 12.1274C103.101 12.1274 104.27 13.1412 104.246 14.5605C104.27 16.0395 102.886 17.089 100.906 17.089H98.4255V21.669H100.906C103.053 21.669 104.556 22.7185 104.532 24.1975C104.556 25.7122 103.268 26.7737 101.431 26.7737C99.5228 26.7737 98.1632 25.7599 98.1393 24.3406H91.4602C91.4841 28.8967 95.5989 32.117 101.383 32.117Z" fill="none"/>
</g>
<defs>

</defs>
</svg>
