<svg xmlns:svg="http://www.w3.org/2000/svg" xmlns="http://www.w3.org/2000/svg" width="16" height="16" viewBox="0 0 16 16">
  <path d="M 8.02 0 C 5.62 -2.96e-16 3.69 0.737 2.22 2.22 C 0.747 3.69 0.0137 5.61 0.0137 8 C 0.0137 10.4 0.747 12.3 2.22 13.8 C 3.69 15.3 5.62 16 8.02 16 C 9.03 16 9.99 15.8 10.9 15.5 C 10.5 15.5 10.5 15.4 10.3 15 L 10.1 14 C 9.36 14.2 8.68 14.2 8 14.2 C 6.24 14.2 4.82 13.7 3.75 12.6 C 2.67 11.4 2.13 9.88 2.13 8 C 2.13 6.11 2.67 4.6 3.75 3.46 C 4.84 2.29 6.26 1.71 8.02 1.71 C 9.79 1.71 11.2 2.29 12.3 3.46 C 13.4 4.6 13.9 6.11 13.9 7.98 C 13.9 9.92 13.3 11.5 12.1 12.8 L 10.1 11.2 L 11.2 15.2 L 15.8 15.5 L 13.7 13.9 C 15.2 12.3 16 10.4 16 7.95 C 16 5.59 15.3 3.66 13.8 2.19 C 12.3 0.729 10.4 0 8.02 0 z " style="opacity: .15" fill="gray"/>
</svg>
